<svg width="50" height="50" viewBox="0 0 50 50" fill="none" xmlns="http://www.w3.org/2000/svg">
<path fill-rule="evenodd" clip-rule="evenodd" d="M3.125 7.8125C3.125 6.5693 3.61886 5.37701 4.49794 4.49794C5.37701 3.61886 6.5693 3.125 7.8125 3.125H10.9375C12.1807 3.125 13.373 3.61886 14.2521 4.49794C15.1311 5.37701 15.625 6.5693 15.625 7.8125H28.5437C28.8877 7.21674 29.4186 6.75113 30.0542 6.48788C30.6897 6.22462 31.3944 6.17843 32.0589 6.35648C32.7234 6.53453 33.3105 6.92686 33.7293 7.47262C34.1481 8.01838 34.3751 8.68708 34.3751 9.375C34.3751 10.0629 34.1481 10.7316 33.7293 11.2774C33.3105 11.8231 32.7234 12.2155 32.0589 12.3935C31.3944 12.5716 30.6897 12.5254 30.0542 12.2621C29.4186 11.9989 28.8877 11.5333 28.5437 10.9375H22.2625C22.8229 11.5 23.3271 12.1302 23.775 12.8281C25.7687 15.9281 26.5625 20.1844 26.5625 25C26.5625 31.2281 27.3656 34.6625 28.7906 36.5625C29.9031 38.05 31.5875 38.8156 34.375 39.0125C34.3882 37.778 34.8878 36.5985 35.7655 35.7302C36.6431 34.8619 37.8279 34.3749 39.0625 34.375H42.1875C43.4307 34.375 44.623 34.8689 45.5021 35.7479C46.3811 36.627 46.875 37.8193 46.875 39.0625V42.1875C46.875 43.4307 46.3811 44.623 45.5021 45.5021C44.623 46.3811 43.4307 46.875 42.1875 46.875H39.0625C37.8193 46.875 36.627 46.3811 35.7479 45.5021C34.8689 44.623 34.375 43.4307 34.375 42.1875H21.4563C21.1123 42.7833 20.5814 43.2489 19.9458 43.5121C19.3103 43.7754 18.6056 43.8216 17.9411 43.6435C17.2766 43.4655 16.6895 43.0731 16.2707 42.5274C15.8519 41.9816 15.6249 41.3129 15.6249 40.625C15.6249 39.9371 15.8519 39.2684 16.2707 38.7226C16.6895 38.1769 17.2766 37.7845 17.9411 37.6065C18.6056 37.4284 19.3103 37.4746 19.9458 37.7379C20.5814 38.0011 21.1123 38.4667 21.4563 39.0625H26.8031C26.6223 38.8617 26.4503 38.6532 26.2875 38.4375C24.1969 35.6469 23.4375 31.2719 23.4375 25C23.4375 20.4375 22.6688 16.8844 21.1469 14.5156C19.9281 12.625 18.1719 11.3906 15.625 11.0406C15.598 12.2659 15.0923 13.4318 14.2161 14.2887C13.34 15.1456 12.163 15.6253 10.9375 15.625H7.8125C6.5693 15.625 5.37701 15.1311 4.49794 14.2521C3.61886 13.373 3.125 12.1807 3.125 10.9375V7.8125ZM7.8125 6.25C7.3981 6.25 7.00067 6.41462 6.70765 6.70765C6.41462 7.00067 6.25 7.3981 6.25 7.8125V10.9375C6.25 11.3519 6.41462 11.7493 6.70765 12.0424C7.00067 12.3354 7.3981 12.5 7.8125 12.5H10.9375C11.3519 12.5 11.7493 12.3354 12.0424 12.0424C12.3354 11.7493 12.5 11.3519 12.5 10.9375V7.8125C12.5 7.3981 12.3354 7.00067 12.0424 6.70765C11.7493 6.41462 11.3519 6.25 10.9375 6.25H7.8125ZM39.0625 37.5C38.6481 37.5 38.2507 37.6646 37.9576 37.9576C37.6646 38.2507 37.5 38.6481 37.5 39.0625V42.1875C37.5 42.6019 37.6646 42.9993 37.9576 43.2924C38.2507 43.5854 38.6481 43.75 39.0625 43.75H42.1875C42.6019 43.75 42.9993 43.5854 43.2924 43.2924C43.5854 42.9993 43.75 42.6019 43.75 42.1875V39.0625C43.75 38.6481 43.5854 38.2507 43.2924 37.9576C42.9993 37.6646 42.6019 37.5 42.1875 37.5H39.0625Z" fill="#9AC834"/>
</svg>
