<?xml version="1.0" encoding="UTF-8" standalone="no"?>
<!DOCTYPE svg PUBLIC "-//W3C//DTD SVG 1.1//EN" "http://www.w3.org/Graphics/SVG/1.1/DTD/svg11.dtd">
<svg width="100%" height="100%" viewBox="0 0 563 838" version="1.1" xmlns="http://www.w3.org/2000/svg" xmlns:xlink="http://www.w3.org/1999/xlink" xml:space="preserve" xmlns:serif="http://www.serif.com/" style="fill-rule:evenodd;clip-rule:evenodd;stroke-linejoin:round;stroke-miterlimit:2;">
    <g transform="matrix(1,0,0,1,-1471.69,-121.157)">
        <g transform="matrix(1,0,0,1,1213.14,0)">
            <g transform="matrix(1.18779,0,0,1.18779,-101.408,-101.408)">
                <g transform="matrix(1,0,0,1,-1213.14,0)">
                    <path d="M1617.02,534.047C1630.6,541.926 1644.18,549.807 1657.76,557.688C1658.96,558.387 1660.07,559.365 1661.37,559.757C1674.86,563.848 1677.03,573.232 1676.86,586.379C1676.1,644.435 1676.53,702.507 1676.52,760.573L1676.52,768.384C1670,764.709 1664.52,761.672 1659.09,758.557C1645.87,750.985 1632.55,743.58 1619.58,735.598C1617.2,734.128 1614.91,730.272 1614.89,727.499C1614.51,670.606 1614.47,613.707 1614.36,556.81C1614.35,549.501 1614.36,542.191 1614.36,534.882C1615.25,534.604 1616.13,534.325 1617.02,534.047ZM1676.59,468.666C1655.42,456.518 1636.14,445.587 1617.08,434.296C1615.4,433.301 1614.35,429.982 1614.3,427.713C1614.1,418.665 1614.07,409.579 1614.75,400.566C1614.93,398.156 1617.32,395.078 1619.55,393.782C1662.15,369.024 1704.91,344.544 1747.53,319.817C1751.74,317.376 1755.02,317.631 1759.02,319.947C1801.47,344.509 1844.03,368.882 1886.38,393.625C1888.94,395.121 1891.43,399.292 1891.44,402.229C1891.71,464.272 1892.3,708.479 1891.53,728.867C1891.45,730.9 1890.38,733.823 1888.83,734.735C1870.34,745.614 1851.67,756.197 1833.03,766.822C1832.28,767.248 1831.33,767.319 1830.03,767.677C1829.9,765.27 1829.72,763.222 1829.7,761.172C1829.42,700.049 1829.3,486.712 1829.76,441.171C1829.82,435.649 1828.15,432.36 1823.34,429.646C1801.23,417.18 1779.34,404.32 1757.21,391.902C1755.11,390.722 1751.24,390.572 1749.2,391.729C1726.55,404.583 1704.02,417.653 1681.72,431.089C1679.2,432.606 1677.03,436.648 1676.82,439.67C1676.17,448.625 1676.59,457.656 1676.59,468.666Z" style="fill:rgb(43,43,43);fill-rule:nonzero;"/>
                </g>
                <g transform="matrix(1,0,0,1,-1213.14,0)">
                    <path d="M1609.22,799.482L1702.72,799.482C1725.44,799.482 1742.29,805.729 1753.27,818.224C1764.25,805.729 1781.09,799.482 1803.81,799.482L1898.79,799.482C1911.29,799.482 1919.43,798.157 1923.22,795.506C1926.62,793.235 1928.33,789.259 1928.33,783.58L1928.33,767.677L1990.1,767.677L1990.1,802.322C1990.1,819.738 1984.04,834.126 1971.92,845.485C1959.05,857.222 1940.68,863.091 1916.83,863.091L1812.9,863.091C1802.67,863.091 1796.24,864.227 1793.59,866.498C1790.94,868.77 1789.61,874.639 1789.61,884.105C1789.61,886.376 1788.57,888.364 1786.49,890.068C1784.41,891.772 1781.85,892.624 1778.82,892.624L1727.71,892.624C1725.06,892.624 1722.69,891.772 1720.61,890.068C1718.53,888.364 1717.49,886.376 1717.49,884.105C1717.49,874.639 1715.97,868.77 1712.94,866.498C1710.29,864.227 1704.04,863.091 1694.2,863.091L1589.7,863.091C1565.85,863.091 1547.67,857.222 1535.18,845.485C1522.68,834.126 1516.43,819.738 1516.43,802.322L1516.43,767.677L1579.68,767.677L1579.68,783.58C1579.68,789.259 1581.39,793.235 1584.8,795.506C1588.58,798.157 1596.72,799.482 1609.22,799.482ZM1927.3,753.84C1927.35,753.517 1927.39,753.203 1927.39,752.901C1927.84,737.338 1927.42,719.009 1927.76,703.441C1927.8,701.303 1902.75,681.601 1902.75,681.601C1902.75,681.601 1902.55,633.373 1902.56,619.426C1902.56,618.57 1902.56,617.254 1902.56,615.904C1902.56,614.841 1903.13,613.859 1904.05,613.329C1904.97,612.799 1906.11,612.801 1907.03,613.335C1919.48,620.702 1932.52,629.779 1943.46,636.082C1956.88,643.808 1970.06,651.936 1983.56,659.516C1987.71,661.847 1989.4,664.345 1989.39,669.281C1989.36,697.456 1989.44,725.632 1989.64,753.803L1928.33,753.803C1927.98,753.803 1927.64,753.815 1927.3,753.84ZM1516.77,753.803C1516.91,737.21 1516.99,720.619 1517.03,704.027C1517.13,664.995 1517.15,625.963 1517.04,586.931C1517,573.502 1516.41,560.075 1516.19,546.644C1516.16,544.466 1516.7,542.278 1517.11,539.052C1533.65,548.598 1548.69,558.533 1564.81,566.169C1577.24,572.057 1579.08,580.518 1578.92,592.905C1578.26,645.433 1578.73,697.973 1578.5,750.508C1578.5,751.704 1578.58,752.797 1578.75,753.803L1516.77,753.803ZM1578.83,326.183C1578.59,327.223 1578.49,328.38 1578.52,329.689C1578.85,344.793 1578.79,404.307 1578.54,419.414C1578.46,424.241 1580.36,427.067 1584.4,429.347C1613.92,446.009 1643.48,462.622 1672.83,479.581C1719.05,506.284 1765.11,533.259 1811.26,560.078C1815.45,562.512 1817.37,565.693 1817.31,570.77C1817.07,589.828 1817.21,608.892 1817.25,627.953C1817.26,633.069 1816.56,635.636 1810.54,632.109C1783.44,616.234 1756.13,600.709 1728.87,585.094C1699.35,568.185 1669.74,551.436 1640.3,534.397C1604.7,513.799 1569.23,492.99 1533.73,472.234C1513.2,460.227 1516.69,466.25 1516.89,441.92C1517.09,418.148 1516.95,349.975 1516.74,326.197L1578.2,326.197C1578.41,326.197 1578.62,326.193 1578.83,326.183ZM1989.85,326.197C1989.85,372.03 1989.82,462.264 1989.85,508.099C1989.87,529.694 1990.11,551.29 1990.09,572.885C1990.09,577.207 1989.38,581.528 1988.93,586.585C1968.81,574.907 1949.56,563.964 1930.66,552.432C1928.59,551.168 1927.74,546.524 1927.73,543.445C1927.56,487.188 1927.56,386.534 1927.71,330.278C1927.71,328.761 1927.61,327.413 1927.33,326.197L1989.85,326.197ZM1897.31,280.518L1803.81,280.518C1781.09,280.518 1764.25,274.271 1753.27,261.776C1742.29,274.271 1725.44,280.518 1702.72,280.518L1607.74,280.518C1595.24,280.518 1587.1,281.843 1583.32,284.494C1579.91,286.765 1578.2,290.741 1578.2,296.42L1578.2,312.323L1516.43,312.323L1516.43,277.678C1516.43,260.262 1522.49,245.874 1534.61,234.515C1547.48,222.778 1565.85,216.909 1589.7,216.909L1693.63,216.909C1703.85,216.909 1710.29,215.773 1712.94,213.502C1715.59,211.23 1716.92,205.361 1716.92,195.895C1716.92,193.624 1717.96,191.636 1720.04,189.932C1722.12,188.228 1724.68,187.376 1727.71,187.376L1778.82,187.376C1781.47,187.376 1783.84,188.228 1785.92,189.932C1788,191.636 1789.05,193.624 1789.05,195.895C1789.05,205.361 1790.56,211.23 1793.59,213.502C1796.24,215.773 1802.49,216.909 1812.33,216.909L1916.83,216.909C1940.68,216.909 1958.86,222.778 1971.35,234.515C1983.85,245.874 1990.1,260.262 1990.1,277.678L1990.1,312.323L1926.85,312.323L1926.85,296.42C1926.85,290.741 1925.14,286.765 1921.74,284.494C1917.95,281.843 1909.81,280.518 1897.31,280.518Z" style="fill:rgb(115,115,115);fill-rule:nonzero;"/>
                </g>
            </g>
        </g>
    </g>
</svg>
